<?xml version="1.0" encoding="utf-8"?>
<svg version="1.1" xmlns:xlink="http://www.w3.org/1999/xlink" width="288px" height="316px" xmlns="http://www.w3.org/2000/svg">
  <defs>
    <pattern id="BGPattern" patternUnits="userSpaceOnUse" alignment="0 0" imageRepeat="None" />
    <mask fill="white" id="Clip380">
      <path d="M 0 172.19851822716674  C 0 92.77913292251611  75.774295473395 121.06943683768391  144 28.397016515506806  C 212.22571251314588 -64.2754038066703  288 92.77913292251611  288 172.19851822716674  C 288 251.617863654164  223.5290159350348 316  144 316  C 64.47100003804701 316  0 251.617863654164  0 172.19851822716674  Z " fill-rule="evenodd" />
    </mask>
  </defs>
  <g transform="matrix(1 0 0 1 -205 -550 )">
    <path d="M 0 172.19851822716674  C 0 92.77913292251611  75.774295473395 121.06943683768391  144 28.397016515506806  C 212.22571251314588 -64.2754038066703  288 92.77913292251611  288 172.19851822716674  C 288 251.617863654164  223.5290159350348 316  144 316  C 64.47100003804701 316  0 251.617863654164  0 172.19851822716674  Z " fill-rule="nonzero" fill="rgba(7, 247, 182, 1)" stroke="none" transform="matrix(1 0 0 1 205 550 )" class="fill" />
    <path d="M 0 172.19851822716674  C 0 92.77913292251611  75.774295473395 121.06943683768391  144 28.397016515506806  C 212.22571251314588 -64.2754038066703  288 92.77913292251611  288 172.19851822716674  C 288 251.617863654164  223.5290159350348 316  144 316  C 64.47100003804701 316  0 251.617863654164  0 172.19851822716674  Z " stroke-width="0" stroke-dasharray="0" stroke="rgba(121, 121, 121, 1)" fill="none" transform="matrix(1 0 0 1 205 550 )" class="stroke" mask="url(#Clip380)" />
  </g>
</svg>