<?xml version="1.0" encoding="utf-8"?>
<svg version="1.1" xmlns:xlink="http://www.w3.org/1999/xlink" width="18px" height="18px" xmlns="http://www.w3.org/2000/svg">
  <defs>
    <pattern id="BGPattern" patternUnits="userSpaceOnUse" alignment="0 0" imageRepeat="None" />
    <mask fill="white" id="Clip343">
      <path d="M 4.125 12.09375  L 4.734375 11.484374999999998  L 6.515625 13.265625000000002  L 5.90625 13.875  L 5.25 13.875  L 5.25 12.749999999999998  L 4.125 12.749999999999998  L 4.125 12.09375  Z M 9.234375 6.949218750000001  C 9.3671875 6.816406249999999  9.484375 6.8046875  9.5859375 6.914062500000001  C 9.6953125 7.015625  9.68359375 7.132812499999999  9.55078125 7.265625000000001  L 6.140625 10.675781249999998  C 6.007812500000001 10.80859375  5.890625000000001 10.820312499999998  5.7890625 10.710937499999998  C 5.679687500000001 10.609374999999998  5.691406250000001 10.4921875  5.82421875 10.359374999999998  L 9.234375 6.949218750000001  Z M 3 15  L 6.375 15  L 12.75 8.625  L 9.375 5.249999999999999  L 3 11.624999999999998  L 3 15  Z M 10.125 4.5  L 13.5 7.875  L 14.578125 6.796874999999999  C 14.796875 6.578124999999999  14.90625 6.3125  14.90625 6.000000000000001  C 14.90625 5.6875  14.796875 5.421874999999998  14.578125 5.203125  L 12.796875 3.421874999999999  C 12.578125000000002 3.203124999999999  12.3125 3.09375  12 3.09375  C 11.687500000000002 3.09375  11.421875 3.203124999999999  11.203125 3.421874999999999  L 10.125 4.5  Z M 17.009765625 0.9902343750000007  C 17.669921875 1.6503906249999984  18 2.4453124999999973  18 3.375  L 18 14.625  C 18 15.554687499999998  17.669921875 16.349609375  17.009765625 17.009765625  C 16.349609375 17.669921875  15.554687500000002 18  14.625 18  L 3.375 18  C 2.4453125 18  1.6503906250000002 17.669921875  0.990234375 17.009765625  C 0.33007812499999994 16.349609375  0 15.554687499999998  0 14.625  L 0 3.375  C 0 2.4453124999999973  0.33007812499999994 1.6503906249999984  0.990234375 0.9902343750000007  C 1.6503906250000002 0.3300781249999989  2.4453125 0  3.375 0  L 14.625 0  C 15.554687500000002 0  16.349609375 0.3300781249999989  17.009765625 0.9902343750000007  Z " fill-rule="evenodd" />
    </mask>
  </defs>
  <g transform="matrix(1 0 0 1 -105 -166 )">
    <path d="M 4.125 12.09375  L 4.734375 11.484374999999998  L 6.515625 13.265625000000002  L 5.90625 13.875  L 5.25 13.875  L 5.25 12.749999999999998  L 4.125 12.749999999999998  L 4.125 12.09375  Z M 9.234375 6.949218750000001  C 9.3671875 6.816406249999999  9.484375 6.8046875  9.5859375 6.914062500000001  C 9.6953125 7.015625  9.68359375 7.132812499999999  9.55078125 7.265625000000001  L 6.140625 10.675781249999998  C 6.007812500000001 10.80859375  5.890625000000001 10.820312499999998  5.7890625 10.710937499999998  C 5.679687500000001 10.609374999999998  5.691406250000001 10.4921875  5.82421875 10.359374999999998  L 9.234375 6.949218750000001  Z M 3 15  L 6.375 15  L 12.75 8.625  L 9.375 5.249999999999999  L 3 11.624999999999998  L 3 15  Z M 10.125 4.5  L 13.5 7.875  L 14.578125 6.796874999999999  C 14.796875 6.578124999999999  14.90625 6.3125  14.90625 6.000000000000001  C 14.90625 5.6875  14.796875 5.421874999999998  14.578125 5.203125  L 12.796875 3.421874999999999  C 12.578125000000002 3.203124999999999  12.3125 3.09375  12 3.09375  C 11.687500000000002 3.09375  11.421875 3.203124999999999  11.203125 3.421874999999999  L 10.125 4.5  Z M 17.009765625 0.9902343750000007  C 17.669921875 1.6503906249999984  18 2.4453124999999973  18 3.375  L 18 14.625  C 18 15.554687499999998  17.669921875 16.349609375  17.009765625 17.009765625  C 16.349609375 17.669921875  15.554687500000002 18  14.625 18  L 3.375 18  C 2.4453125 18  1.6503906250000002 17.669921875  0.990234375 17.009765625  C 0.33007812499999994 16.349609375  0 15.554687499999998  0 14.625  L 0 3.375  C 0 2.4453124999999973  0.33007812499999994 1.6503906249999984  0.990234375 0.9902343750000007  C 1.6503906250000002 0.3300781249999989  2.4453125 0  3.375 0  L 14.625 0  C 15.554687500000002 0  16.349609375 0.3300781249999989  17.009765625 0.9902343750000007  Z " fill-rule="nonzero" fill="rgba(7, 247, 182, 1)" stroke="none" transform="matrix(1 0 0 1 105 166 )" class="fill" />
    <path d="M 4.125 12.09375  L 4.734375 11.484374999999998  L 6.515625 13.265625000000002  L 5.90625 13.875  L 5.25 13.875  L 5.25 12.749999999999998  L 4.125 12.749999999999998  L 4.125 12.09375  Z " stroke-width="24" stroke-dasharray="0" stroke="rgba(255, 255, 255, 0)" fill="none" transform="matrix(1 0 0 1 105 166 )" class="stroke" mask="url(#Clip343)" />
    <path d="M 9.234375 6.949218750000001  C 9.3671875 6.816406249999999  9.484375 6.8046875  9.5859375 6.914062500000001  C 9.6953125 7.015625  9.68359375 7.132812499999999  9.55078125 7.265625000000001  L 6.140625 10.675781249999998  C 6.007812500000001 10.80859375  5.890625000000001 10.820312499999998  5.7890625 10.710937499999998  C 5.679687500000001 10.609374999999998  5.691406250000001 10.4921875  5.82421875 10.359374999999998  L 9.234375 6.949218750000001  Z " stroke-width="24" stroke-dasharray="0" stroke="rgba(255, 255, 255, 0)" fill="none" transform="matrix(1 0 0 1 105 166 )" class="stroke" mask="url(#Clip343)" />
    <path d="M 3 15  L 6.375 15  L 12.75 8.625  L 9.375 5.249999999999999  L 3 11.624999999999998  L 3 15  Z " stroke-width="24" stroke-dasharray="0" stroke="rgba(255, 255, 255, 0)" fill="none" transform="matrix(1 0 0 1 105 166 )" class="stroke" mask="url(#Clip343)" />
    <path d="M 10.125 4.5  L 13.5 7.875  L 14.578125 6.796874999999999  C 14.796875 6.578124999999999  14.90625 6.3125  14.90625 6.000000000000001  C 14.90625 5.6875  14.796875 5.421874999999998  14.578125 5.203125  L 12.796875 3.421874999999999  C 12.578125000000002 3.203124999999999  12.3125 3.09375  12 3.09375  C 11.687500000000002 3.09375  11.421875 3.203124999999999  11.203125 3.421874999999999  L 10.125 4.5  Z " stroke-width="24" stroke-dasharray="0" stroke="rgba(255, 255, 255, 0)" fill="none" transform="matrix(1 0 0 1 105 166 )" class="stroke" mask="url(#Clip343)" />
    <path d="M 17.009765625 0.9902343750000007  C 17.669921875 1.6503906249999984  18 2.4453124999999973  18 3.375  L 18 14.625  C 18 15.554687499999998  17.669921875 16.349609375  17.009765625 17.009765625  C 16.349609375 17.669921875  15.554687500000002 18  14.625 18  L 3.375 18  C 2.4453125 18  1.6503906250000002 17.669921875  0.990234375 17.009765625  C 0.33007812499999994 16.349609375  0 15.554687499999998  0 14.625  L 0 3.375  C 0 2.4453124999999973  0.33007812499999994 1.6503906249999984  0.990234375 0.9902343750000007  C 1.6503906250000002 0.3300781249999989  2.4453125 0  3.375 0  L 14.625 0  C 15.554687500000002 0  16.349609375 0.3300781249999989  17.009765625 0.9902343750000007  Z " stroke-width="24" stroke-dasharray="0" stroke="rgba(255, 255, 255, 0)" fill="none" transform="matrix(1 0 0 1 105 166 )" class="stroke" mask="url(#Clip343)" />
  </g>
</svg>