<?xml version="1.0" encoding="utf-8"?>
<svg version="1.1" xmlns:xlink="http://www.w3.org/1999/xlink" width="25px" height="25px" xmlns="http://www.w3.org/2000/svg">
  <defs>
    <pattern id="BGPattern" patternUnits="userSpaceOnUse" alignment="0 0" imageRepeat="None" />
    <mask fill="white" id="Clip333">
      <path d="M 25 14  L 25 11  L 5.984375 11  L 14.710937499999998 2.2109375  L 12.5 0  L 0 12.5  L 12.5 25  L 14.710937499999998 22.7890625  L 5.984375 14  L 25 14  Z " fill-rule="evenodd" />
    </mask>
  </defs>
  <g transform="matrix(1 0 0 1 -30 -19 )">
    <path d="M 25 14  L 25 11  L 5.984375 11  L 14.710937499999998 2.2109375  L 12.5 0  L 0 12.5  L 12.5 25  L 14.710937499999998 22.7890625  L 5.984375 14  L 25 14  Z " fill-rule="nonzero" fill="rgba(0, 0, 0, 1)" stroke="none" transform="matrix(1 0 0 1 30 19 )" class="fill" />
    <path d="M 25 14  L 25 11  L 5.984375 11  L 14.710937499999998 2.2109375  L 12.5 0  L 0 12.5  L 12.5 25  L 14.710937499999998 22.7890625  L 5.984375 14  L 25 14  Z " stroke-width="0" stroke-dasharray="0" stroke="rgba(255, 255, 255, 0)" fill="none" transform="matrix(1 0 0 1 30 19 )" class="stroke" mask="url(#Clip333)" />
  </g>
</svg>